<svg width="60" height="64" viewBox="0 0 60 64" fill="none" xmlns="http://www.w3.org/2000/svg">
<path d="M54.0451 6.44294C50.1824 2.39287 45.0966 0.146606 39.6566 0.146606C34.2167 0.146606 29.1309 2.39287 25.2682 6.44294C22.2747 9.60812 20.3111 13.6242 19.603 17.9465C19.5386 18.3889 19.4742 18.8314 19.442 19.2738C19.4099 19.7163 19.3777 20.1587 19.3455 20.6012C19.3133 20.9415 19.3133 21.3159 19.3133 21.6562V24.5832V25.9105V27.2378V43.1999H34.4099H35.6652H36.9206C36.9528 42.8255 36.9528 42.4852 36.9528 42.1108V39.2179H35.6974H23.0794V27.2038V24.5832V21.6903C23.0794 21.3159 23.0794 20.9756 23.1116 20.6012C23.1438 20.1587 23.176 19.7163 23.2403 19.2738C23.3047 18.8314 23.3691 18.3889 23.4657 17.9465C24.1416 14.6112 25.7511 11.6161 27.9399 9.26778C30.9335 6.1026 35.0858 4.12861 39.6566 4.12861C48.7983 4.12861 56.2339 11.9905 56.2339 21.6562C56.2339 26.4891 54.3669 30.8795 51.3734 34.0447C49.1524 36.3931 46.3197 38.0607 43.1652 38.7754V39.1498V42.0768C43.1652 42.349 43.1652 42.5873 43.1652 42.8596C47.2532 42.1108 51.0515 40.0347 54.0451 36.8695C57.8755 32.8195 60 27.408 60 21.6562C60 15.9045 57.8755 10.493 54.0451 6.44294Z" fill="#F7654A"/>
<path d="M23.0794 24.5491H24.3348H25.5901H36.9528V36.5632V37.8906V39.2179V42.1108C36.9528 42.4852 36.9528 42.8255 36.9206 43.1999C36.8884 43.6423 36.8562 44.0848 36.7919 44.5272C36.7275 44.9697 36.6631 45.4121 36.5665 45.8546C35.8906 49.1899 34.2811 52.1849 32.0923 54.5333C29.0987 57.6985 24.9464 59.6725 20.3755 59.6725C11.2339 59.6725 3.79828 51.8106 3.79828 42.1448C3.79828 37.312 5.66524 32.9216 8.6588 29.7564C10.8798 27.408 13.7124 25.7403 16.867 25.0256V21.7243C16.867 21.452 16.867 21.2138 16.867 20.9415C12.779 21.6903 8.98069 23.7664 5.98713 26.9315C2.12446 30.9135 0 36.325 0 42.0768C0 47.8285 2.12446 53.206 5.95494 57.2901C9.78541 61.3401 14.9034 63.5864 20.3434 63.5864C25.7833 63.5864 30.8691 61.3401 34.7318 57.2901C38.3369 53.4782 40.4292 48.4752 40.6545 43.1318C40.6545 42.9617 40.6545 42.7915 40.6867 42.6213C40.6867 42.5192 40.6867 42.4511 40.6867 42.349C40.6867 42.2469 40.6867 42.1789 40.6867 42.0768V39.1498V20.5671H25.5901H24.3348H23.0794C23.0472 20.9415 23.0472 21.2819 23.0472 21.6562L23.0794 24.5491Z" fill="#F7654A"/>
</svg>
